# xmcd CD database file
#
# Track frame offsets:
#	150
#	26838
#	44825
#	70817
#	92362
#	104173
#	126135
#	148290
#	169419
#	184281
#
# Disc length: 2774 seconds
#
# Revision: 0
# Processed by: cddbd v1.5.2PL0 Copyright (c) Steve Scherf et al.
# Submitted via: CDex 1.51
#
DISCID=9d0ad40a
DTITLE=AuMusa Ei - In Show
DYEAR=2011
DGENRE=New Age
TTITLE0=Silent Instrument
TTITLE1=Two Dimensions
TTITLE2=Jacob's Ladder
TTITLE3=Transience
TTITLE4=Tuilte
TTITLE5=Sunday
TTITLE6=Pleasure Cookies
TTITLE7=Fionrai
TTITLE8=The Stripes
TTITLE9=Focus Spirit
EXTD=YEAR: 2011
EXTT0=
EXTT1=
EXTT2=
EXTT3=
EXTT4=
EXTT5=
EXTT6=
EXTT7=
EXTT8=
EXTT9=
PLAYORDER=
